<svg xmlns="http://www.w3.org/2000/svg" xmlns:xlink="http://www.w3.org/1999/xlink" xmlns:lucid="lucid" width="683.77" height="220"><g transform="translate(-527.2347747124237 -830)" lucid:page-tab-id="0_0"><path d="M810.94 970v20l15-10zm15 10h2zm2 0l15-10v20z" stroke="#5e5e5e" fill="#fff"/><use xlink:href="#a" transform="matrix(1,0,0,1,786.9388134149367,1005) translate(12.962962962962976 22.22222222222222)"/><use xlink:href="#b" transform="matrix(1,0,0,1,786.9388134149367,1005) translate(40.123456790123456 22.22222222222222)"/><path d="M780 1012c0 9.94-31.34 18-70 18s-70-8.06-70-18V868c0-9.94 31.34-18 70-18s70 8.06 70 18z" stroke="#5e5e5e" stroke-width="3" fill="#fff"/><path d="M780 868c0 9.94-31.34 18-70 18s-70-8.06-70-18" stroke="#5e5e5e" stroke-width="3" fill="none"/><use xlink:href="#c" transform="matrix(1,0,0,1,645,891) translate(53.287037037037045 67.95138888888889)"/><path d="M639.5 900h3.92m7.83 0h7.83m7.84 0h7.83m7.83 0h7.84m7.83 0h7.83m7.84 0h7.83m7.83 0h7.84m7.83 0h7.83m7.84 0h7.83m7.83 0h3.92" stroke="#5e5e5e" stroke-width="2" fill="none"/><path d="M639.53 901h-1.03v-2h1.03zM781.5 901h-1.03v-2h1.03z" fill="#5e5e5e"/><path d="M639.5 1000h3.96m7.9 0h7.93m7.9 0h7.92m7.92 0h7.92m7.9 0h7.93m7.9 0h7.92m7.92 0h7.92m7.9 0h7.93m7.9 0h7.92m7.92 0H782" stroke="#5e5e5e" stroke-width="2" fill="none"/><path d="M639.53 1001h-1.03v-2h1.03z" fill="#5e5e5e"/><path d="M781.97 1000H783" stroke="#5e5e5e" stroke-width="2" fill="none"/><path d="M547.23 886c0-3.3 2.7-6 6-6h74.8c3.32 0 6 2.7 6 6v18c0 3.3-2.68 6-6 6h-74.8c-3.3 0-6-2.7-6-6z" stroke="#000" stroke-opacity="0" stroke-width="3" fill="#fff" fill-opacity="0"/><use xlink:href="#d" transform="matrix(1,0,0,1,552.2347747124237,885) translate(13.222222222222236 12.638888888888884)"/><use xlink:href="#e" transform="matrix(1,0,0,1,552.2347747124237,885) translate(37.26543209876543 12.638888888888884)"/><path d="M547.23 986c0-3.3 2.7-6 6-6h74.8c3.32 0 6 2.7 6 6v18c0 3.3-2.68 6-6 6h-74.8c-3.3 0-6-2.7-6-6z" stroke="#000" stroke-opacity="0" stroke-width="3" fill="#fff" fill-opacity="0"/><use xlink:href="#f" transform="matrix(1,0,0,1,552.2347747124237,985) translate(14.780864197530875 12.638888888888884)"/><use xlink:href="#e" transform="matrix(1,0,0,1,552.2347747124237,985) translate(35.70679012345679 12.638888888888884)"/><path d="M560.12 961c0 3.3 2.68 5.98 5.98 5.98H620" stroke="#5e5e5e" stroke-width="2" fill="none"/><path d="M559.2 960h1.92v1.03h-2v-1.05z" fill="#5e5e5e"/><path d="M635.26 966.98L621 971.62v-9.27z" stroke="#5e5e5e" stroke-width="2" fill="#5e5e5e"/><path d="M553.2 936c0-3.3 2.68-6 6-6H634c3.3 0 6 2.7 6 6v18c0 3.3-2.7 6-6 6h-74.8c-3.32 0-6-2.7-6-6z" stroke="#000" stroke-opacity="0" stroke-width="3" fill="#fff" fill-opacity="0"/><use xlink:href="#g" transform="matrix(1,0,0,1,558.1951139667906,935) translate(28.021604938271608 12.638888888888884)"/><path d="M782.5 981.06h9.44" stroke="#5e5e5e" stroke-width="2" fill="none"/><path d="M782.53 982.06h-1.03v-2h1.03z" fill="#5e5e5e"/><path d="M807.2 981.06l-14.26 4.63v-9.28z" stroke="#5e5e5e" stroke-width="2" fill="#5e5e5e"/><path d="M844.44 980h12.97m13 0h2.58m12.98 0h2.6m12.96 0h12.98" stroke="#5e5e5e" stroke-width="2" fill="none"/><path d="M844.46 981h-1.02v-2h1.02z" fill="#5e5e5e"/><path d="M929.76 980l-14.26 4.64v-9.28z" stroke="#5e5e5e" stroke-width="2" fill="#5e5e5e"/><path d="M1074.5 1012c0 9.94-31.34 18-70 18s-70-8.06-70-18V868c0-9.94 31.34-18 70-18s70 8.06 70 18z" stroke="#5e5e5e" stroke-width="3" fill="#fff"/><path d="M1074.5 868c0 9.94-31.34 18-70 18s-70-8.06-70-18" stroke="#5e5e5e" stroke-width="3" fill="none"/><use xlink:href="#c" transform="matrix(1,0,0,1,939.5002259158522,891) translate(53.287037037037045 67.95138888888889)"/><path d="M934 900h3.92m7.83 0h7.83m7.84 0h7.83m7.83 0h7.84m7.83 0h7.83m7.84 0h7.83m7.83 0h7.84m7.83 0h7.83m7.84 0h7.83m7.83 0h3.92" stroke="#5e5e5e" stroke-width="2" fill="none"/><path d="M934.03 901H933v-2h1.03zM1076 901h-1.03v-2h1.03z" fill="#5e5e5e"/><path d="M934 1000h3.92m7.83 0h7.83m7.84 0h7.83m7.83 0h7.84m7.83 0h7.83m7.84 0h7.83m7.83 0h7.84m7.83 0h7.83m7.84 0h7.83m7.83 0h3.92" stroke="#5e5e5e" stroke-width="2" fill="none"/><path d="M934.03 1001H933v-2h1.03zM1076 1001h-1.03v-2h1.03z" fill="#5e5e5e"/><path d="M840 946c0-3.3 2.7-6 6-6h74.8c3.32 0 6 2.7 6 6v18c0 3.3-2.68 6-6 6H846c-3.3 0-6-2.7-6-6z" stroke="#000" stroke-opacity="0" stroke-width="3" fill="#fff" fill-opacity="0"/><use xlink:href="#h" transform="matrix(1,0,0,1,845,945) translate(4.580246913580261 12.638888888888884)"/><use xlink:href="#i" transform="matrix(1,0,0,1,845,945) translate(33.53086419753086 12.638888888888884)"/><use xlink:href="#j" transform="matrix(1,0,0,1,845,945) translate(45.87654320987654 12.638888888888884)"/><path d="M1103.94 970v20l15-10zm15 10h2zm2 0l15-10v20z" stroke="#5e5e5e" fill="#fff"/><path d="M1075.5 981.06h9.44M1075.53 981.06h-1.03" stroke="#5e5e5e" stroke-width="2" fill="none"/><path d="M1100.2 981.06l-14.26 4.63v-9.28z" stroke="#5e5e5e" stroke-width="2" fill="#5e5e5e"/><path d="M1137.44 980h24.06" stroke="#5e5e5e" stroke-width="2" fill="none"/><path d="M1137.46 981h-1.02v-2h1.02z" fill="#5e5e5e"/><path d="M1176.76 980l-14.26 4.64v-9.28z" stroke="#5e5e5e" stroke-width="2" fill="#5e5e5e"/><defs><path fill="#333" d="M143 4C61 4 22-44 18-125c-5-107 100-154 193-111 17 8 29 25 37 43l-32 9c-13-25-37-40-76-40-61 0-88 39-88 99 0 61 29 100 91 101 35 0 62-11 79-27v-45h-74v-28h105v86C228-13 192 4 143 4" id="k"/><path fill="#333" d="M141-36C126-15 110 5 73 4 37 3 15-17 15-53c-1-64 63-63 125-63 3-35-9-54-41-54-24 1-41 7-42 31l-33-3c5-37 33-52 76-52 45 0 72 20 72 64v82c-1 20 7 32 28 27v20c-31 9-61-2-59-35zM48-53c0 20 12 33 32 33 41-3 63-29 60-74-43 2-92-5-92 41" id="l"/><path fill="#333" d="M59-47c-2 24 18 29 38 22v24C64 9 27 4 27-40v-127H5v-23h24l9-43h21v43h35v23H59v120" id="m"/><path fill="#333" d="M100-194c63 0 86 42 84 106H49c0 40 14 67 53 68 26 1 43-12 49-29l28 8c-11 28-37 45-77 45C44 4 14-33 15-96c1-61 26-98 85-98zm52 81c6-60-76-77-97-28-3 7-6 17-6 28h103" id="n"/><g id="a"><use transform="matrix(0.030864197530864182,0,0,0.030864197530864182,0,0)" xlink:href="#k"/><use transform="matrix(0.030864197530864182,0,0,0.030864197530864182,8.641975308641971,0)" xlink:href="#l"/><use transform="matrix(0.030864197530864182,0,0,0.030864197530864182,14.814814814814808,0)" xlink:href="#m"/><use transform="matrix(0.030864197530864182,0,0,0.030864197530864182,17.901234567901227,0)" xlink:href="#n"/></g><path fill="#333" d="M137 0h-34L2-248h35l83 218 83-218h36" id="o"/><path fill="#333" d="M24 0v-261h32V0H24" id="p"/><path fill="#333" d="M108 0H70L1-190h34L89-25l56-165h34" id="q"/><g id="b"><use transform="matrix(0.030864197530864182,0,0,0.030864197530864182,0,0)" xlink:href="#o"/><use transform="matrix(0.030864197530864182,0,0,0.030864197530864182,6.574074074074071,0)" xlink:href="#l"/><use transform="matrix(0.030864197530864182,0,0,0.030864197530864182,12.746913580246908,0)" xlink:href="#p"/><use transform="matrix(0.030864197530864182,0,0,0.030864197530864182,15.185185185185178,0)" xlink:href="#q"/><use transform="matrix(0.030864197530864182,0,0,0.030864197530864182,20.74074074074073,0)" xlink:href="#n"/></g><path fill="#333" d="M127-220V0H93v-220H8v-28h204v28h-85" id="r"/><path fill="#333" d="M117-194c89-4 53 116 60 194h-32v-121c0-31-8-49-39-48C34-167 62-67 57 0H25l-1-190h30c1 10-1 24 2 32 11-22 29-35 61-36" id="s"/><path fill="#333" d="M143 0L79-87 56-68V0H24v-261h32v163l83-92h37l-77 82L181 0h-38" id="t"/><g id="c"><use transform="matrix(0.030864197530864182,0,0,0.030864197530864182,0,0)" xlink:href="#r"/><use transform="matrix(0.030864197530864182,0,0,0.030864197530864182,5.524691358024689,0)" xlink:href="#l"/><use transform="matrix(0.030864197530864182,0,0,0.030864197530864182,11.697530864197525,0)" xlink:href="#s"/><use transform="matrix(0.030864197530864182,0,0,0.030864197530864182,17.87037037037036,0)" xlink:href="#t"/></g><path fill="#333" d="M240 0l2-218c-23 76-54 145-80 218h-23L58-218 59 0H30v-248h44l77 211c21-75 51-140 76-211h43V0h-30" id="u"/><path fill="#333" d="M141 0L90-78 38 0H4l68-98-65-92h35l48 74 47-74h35l-64 92 68 98h-35" id="v"/><g id="d"><use transform="matrix(0.030864197530864182,0,0,0.030864197530864182,0,0)" xlink:href="#u"/><use transform="matrix(0.030864197530864182,0,0,0.030864197530864182,9.22839506172839,0)" xlink:href="#l"/><use transform="matrix(0.030864197530864182,0,0,0.030864197530864182,15.401234567901227,0)" xlink:href="#v"/></g><path fill="#333" d="M30 0v-248h33v221h125V0H30" id="w"/><g id="e"><use transform="matrix(0.030864197530864182,0,0,0.030864197530864182,0,0)" xlink:href="#w"/><use transform="matrix(0.030864197530864182,0,0,0.030864197530864182,6.172839506172837,0)" xlink:href="#n"/><use transform="matrix(0.030864197530864182,0,0,0.030864197530864182,12.345679012345673,0)" xlink:href="#q"/><use transform="matrix(0.030864197530864182,0,0,0.030864197530864182,17.901234567901227,0)" xlink:href="#n"/><use transform="matrix(0.030864197530864182,0,0,0.030864197530864182,24.074074074074062,0)" xlink:href="#p"/></g><path fill="#333" d="M24-231v-30h32v30H24zM24 0v-190h32V0H24" id="x"/><g id="f"><use transform="matrix(0.030864197530864182,0,0,0.030864197530864182,0,0)" xlink:href="#u"/><use transform="matrix(0.030864197530864182,0,0,0.030864197530864182,9.22839506172839,0)" xlink:href="#x"/><use transform="matrix(0.030864197530864182,0,0,0.030864197530864182,11.66666666666666,0)" xlink:href="#s"/></g><path fill="#333" d="M33 0v-248h34V0H33" id="y"/><g id="g"><use transform="matrix(0.030864197530864182,0,0,0.030864197530864182,0,0)" xlink:href="#y"/><use transform="matrix(0.030864197530864182,0,0,0.030864197530864182,3.0864197530864184,0)" xlink:href="#s"/><use transform="matrix(0.030864197530864182,0,0,0.030864197530864182,9.259259259259256,0)" xlink:href="#p"/><use transform="matrix(0.030864197530864182,0,0,0.030864197530864182,11.697530864197526,0)" xlink:href="#n"/><use transform="matrix(0.030864197530864182,0,0,0.030864197530864182,17.870370370370363,0)" xlink:href="#m"/></g><path fill="#333" d="M185-189c-5-48-123-54-124 2 14 75 158 14 163 119 3 78-121 87-175 55-17-10-28-26-33-46l33-7c5 56 141 63 141-1 0-78-155-14-162-118-5-82 145-84 179-34 5 7 8 16 11 25" id="z"/><path fill="#333" d="M114-163C36-179 61-72 57 0H25l-1-190h30c1 12-1 29 2 39 6-27 23-49 58-41v29" id="A"/><g id="h"><use transform="matrix(0.030864197530864182,0,0,0.030864197530864182,0,0)" xlink:href="#z"/><use transform="matrix(0.030864197530864182,0,0,0.030864197530864182,7.407407407407404,0)" xlink:href="#n"/><use transform="matrix(0.030864197530864182,0,0,0.030864197530864182,13.58024691358024,0)" xlink:href="#A"/><use transform="matrix(0.030864197530864182,0,0,0.030864197530864182,17.253086419753078,0)" xlink:href="#x"/><use transform="matrix(0.030864197530864182,0,0,0.030864197530864182,19.691358024691347,0)" xlink:href="#n"/></g><path fill="#333" d="M100-194c62-1 85 37 85 99 1 63-27 99-86 99S16-35 15-95c0-66 28-99 85-99zM99-20c44 1 53-31 53-75 0-43-8-75-51-75s-53 32-53 75 10 74 51 75" id="B"/><path fill="#333" d="M101-234c-31-9-42 10-38 44h38v23H63V0H32v-167H5v-23h27c-7-52 17-82 69-68v24" id="C"/><g id="i"><use transform="matrix(0.030864197530864182,0,0,0.030864197530864182,0,0)" xlink:href="#B"/><use transform="matrix(0.030864197530864182,0,0,0.030864197530864182,6.172839506172837,0)" xlink:href="#C"/></g><path fill="#333" d="M135-143c-3-34-86-38-87 0 15 53 115 12 119 90S17 21 10-45l28-5c4 36 97 45 98 0-10-56-113-15-118-90-4-57 82-63 122-42 12 7 21 19 24 35" id="D"/><g id="j"><use transform="matrix(0.030864197530864182,0,0,0.030864197530864182,0,0)" xlink:href="#m"/><use transform="matrix(0.030864197530864182,0,0,0.030864197530864182,3.0864197530864184,0)" xlink:href="#l"/><use transform="matrix(0.030864197530864182,0,0,0.030864197530864182,9.259259259259256,0)" xlink:href="#s"/><use transform="matrix(0.030864197530864182,0,0,0.030864197530864182,15.432098765432093,0)" xlink:href="#t"/><use transform="matrix(0.030864197530864182,0,0,0.030864197530864182,20.987654320987644,0)" xlink:href="#D"/></g></defs></g></svg>